<svg width="25" height="24" viewBox="0 0 25 24" fill="none" xmlns="http://www.w3.org/2000/svg">
    <path d="M1 22V4C1 3.44771 1.44771 3 2 3H23C23.5523 3 24 3.44772 24 4V22C24 22.5523 23.5523 23 23 23H2C1.44772 23 1 22.5523 1 22Z" stroke="#2E5CC7" stroke-width="2"/>
    <rect x="4" y="10" width="2" height="2" rx="1" fill="#2E5CC7"/>
    <rect x="4" y="14" width="2" height="2" rx="1" fill="#2E5CC7"/>
    <rect x="4" y="18" width="2" height="2" rx="1" fill="#2E5CC7"/>
    <rect x="9" y="10" width="2" height="2" rx="1" fill="#2E5CC7"/>
    <rect x="9" y="14" width="2" height="2" rx="1" fill="#2E5CC7"/>
    <rect x="9" y="18" width="2" height="2" rx="1" fill="#2E5CC7"/>
    <rect x="14" y="10" width="2" height="2" rx="1" fill="#2E5CC7"/>
    <rect x="14" y="14" width="2" height="2" rx="1" fill="#2E5CC7"/>
    <rect x="14" y="18" width="2" height="2" rx="1" fill="#2E5CC7"/>
    <rect x="19" y="10" width="2" height="2" rx="1" fill="#2E5CC7"/>
    <rect x="19" y="14" width="2" height="2" rx="1" fill="#2E5CC7"/>
    <rect x="19" y="18" width="2" height="2" rx="1" fill="#2E5CC7"/>
    <rect x="1" y="6" width="23" height="2" fill="#2E5CC7"/>
    <rect x="5" width="2" height="5" rx="1" fill="#2E5CC7"/>
    <rect x="18" width="2" height="5" rx="1" fill="#2E5CC7"/>
</svg>
