<svg width="18" height="18" viewBox="0 0 18 18" fill="none" xmlns="http://www.w3.org/2000/svg">
    <path d="M11.7799 9.43571L11.7799 9.43577C11.7146 9.52328 11.6495 9.65964 11.6006 9.80736C11.5517 9.95507 11.5225 10.1035 11.5225 10.2128V13.822C11.5225 14.0233 11.4593 14.2361 11.3577 14.4236C11.256 14.6112 11.1122 14.7805 10.9435 14.8905L10.8888 14.8068L10.9435 14.8905L7.84889 16.9087L7.84887 16.9087C7.65853 17.0327 7.46313 17.1 7.2684 17.1C7.07146 17.1 6.87172 17.0259 6.72149 16.8679C6.57081 16.7095 6.47738 16.4746 6.47738 16.166V10.213C6.47738 10.1037 6.44823 9.95525 6.39933 9.80754C6.35043 9.65982 6.28529 9.52346 6.22005 9.43595L6.22001 9.43589L1.43193 3.00408C1.05725 2.50091 0.942468 1.97989 1.15893 1.54946C1.15895 1.54943 1.15896 1.5494 1.15898 1.54937L1.24831 1.59431C1.44067 1.21102 1.8812 1 2.48867 1H15.5112C16.1187 1 16.5592 1.21102 16.7516 1.59413L11.7799 9.43571ZM11.7799 9.43571L16.568 3.0039L11.7799 9.43571ZM10.7565 13.722H10.7563V13.822C10.7563 13.8841 10.7303 13.9719 10.6833 14.0586C10.6364 14.1453 10.577 14.2152 10.5249 14.2492C10.5249 14.2492 10.5249 14.2492 10.5249 14.2492L7.43049 16.2672L7.43048 16.2672C7.3448 16.3231 7.29285 16.3324 7.27415 16.3339C7.27003 16.3279 7.26413 16.3162 7.25859 16.2966C7.24573 16.2511 7.24342 16.1952 7.24342 16.166V10.2128C7.24342 10.016 7.1978 9.7846 7.1255 9.56649C7.05319 9.34838 6.95164 9.13582 6.8345 8.97836L6.83448 8.97833L2.04641 2.54672C2.04641 2.54671 2.0464 2.5467 2.04639 2.54668C1.93874 2.40196 1.87014 2.26826 1.83824 2.15418C1.8062 2.03963 1.81322 1.95334 1.84342 1.89329L1.84346 1.89322C1.8737 1.83298 1.93882 1.77579 2.04982 1.73312C2.16039 1.69061 2.30857 1.66587 2.48884 1.66587H15.5114C15.6917 1.66587 15.8399 1.69061 15.9504 1.73312C16.0614 1.77579 16.1266 1.83298 16.1568 1.89322L16.1568 1.89329C16.187 1.95331 16.194 2.03959 16.162 2.15416C16.13 2.26826 16.0614 2.40198 15.9538 2.54673C15.9538 2.54674 15.9538 2.54674 15.9538 2.54675L11.1654 8.97815L11.1654 8.97817C11.0482 9.13573 10.9466 9.3484 10.8743 9.56655C10.8021 9.7847 10.7565 10.0161 10.7565 10.2128V13.722Z" fill="" stroke="white" stroke-width="0.4"/>
</svg>
