<svg width="16" height="17" viewBox="0 0 16 17" fill="none" xmlns="http://www.w3.org/2000/svg">
    <path fill-rule="evenodd" clip-rule="evenodd" d="M7.55476 14.1026C11.0317 14.1026 13.8504 11.2326 13.8504 7.69231C13.8504 4.15202 11.0317 1.28205 7.55476 1.28205C4.07778 1.28205 1.25913 4.15202 1.25913 7.69231C1.25913 11.2326 4.07778 14.1026 7.55476 14.1026ZM7.55476 15.3846C11.7271 15.3846 15.1095 11.9407 15.1095 7.69231C15.1095 3.44396 11.7271 0 7.55476 0C3.38238 0 0 3.44396 0 7.69231C0 11.9407 3.38238 15.3846 7.55476 15.3846Z" fill="#6F788C"/>
    <path fill-rule="evenodd" clip-rule="evenodd" d="M15.1097 16.6667L11.6175 13.1109L12.5078 12.2044L16 15.7601L15.1097 16.6667Z" fill="#6F788C"/>
</svg>
