<?xml version="1.0" encoding="utf-8"?>
<!-- Generator: Adobe Illustrator 24.1.2, SVG Export Plug-In . SVG Version: 6.00 Build 0)  -->
<svg version="1.1" id="Слой_1" xmlns="http://www.w3.org/2000/svg" xmlns:xlink="http://www.w3.org/1999/xlink" x="0px" y="0px"
	 viewBox="0 0 640 480" style="enable-background:new 0 0 640 480;" xml:space="preserve">
<style type="text/css">
	.st0{fill:#FFFFFF;stroke-width:25;stroke-linejoin:round;stroke-miterlimit:10;}
	.st1{fill:#E52D2E;stroke-linejoin:round;stroke-miterlimit:10;}
</style>
<path class="st0" d="M166,428c-2.62,0-5.25-0.68-7.6-2.07c-5.21-3.06-8.07-8.95-7.26-14.94l7.7-56.99H116c-8.28,0-15-6.72-15-15V78
	c0-8.28,6.72-15,15-15h364c8.28,0,15,6.72,15,15v261c0,8.28-6.72,15-15,15H270.04l-95.06,71.02C172.33,427,169.17,428,166,428z"/>
<g>
	<path d="M143.67,136c0,9.94,8.06,18,18,18H422c9.94,0,18-8.06,18-18s-8.06-18-18-18H161.67C151.73,118,143.67,126.06,143.67,136
		C143.67,136,143.67,126.06,143.67,136z"/>
	<path class="st1" d="M143.67,136c0,9.94,8.06,18,18,18H422c9.94,0,18-8.06,18-18s-8.06-18-18-18H161.67
		C151.73,118,143.67,126.06,143.67,136C143.67,136,143.67,126.06,143.67,136z"/>
</g>
<g>
	<path d="M143.99,200.71c0,9.94,8.06,18,18,18h260.33c9.94,0,18-8.06,18-18s-8.06-18-18-18H161.99
		C152.05,182.71,143.99,190.77,143.99,200.71C143.99,200.71,143.99,190.77,143.99,200.71z"/>
	<path class="st1" d="M143.99,200.71c0,9.94,8.06,18,18,18h260.33c9.94,0,18-8.06,18-18s-8.06-18-18-18H161.99
		C152.05,182.71,143.99,190.77,143.99,200.71C143.99,200.71,143.99,190.77,143.99,200.71z"/>
</g>
<g>
	<path d="M143.99,265.42c0,9.94,8.06,18,18,18H374c9.94,0,18-8.06,18-18c0-9.94-8.06-18-18-18H161.99
		C152.05,247.42,143.99,255.48,143.99,265.42C143.99,265.42,143.99,255.48,143.99,265.42z"/>
	<path class="st1" d="M143.99,265.42c0,9.94,8.06,18,18,18H374c9.94,0,18-8.06,18-18c0-9.94-8.06-18-18-18H161.99
		C152.05,247.42,143.99,255.48,143.99,265.42C143.99,265.42,143.99,255.48,143.99,265.42z"/>
</g>
</svg>
