<svg width="21" height="21" viewBox="0 0 21 21" fill="none" xmlns="http://www.w3.org/2000/svg">
  <path d="M10.4998 0.916664C5.20984 0.916664 0.916504 5.21 0.916504 10.5C0.916504 15.79 5.20984 20.0833 10.4998 20.0833C15.7898 20.0833 20.0832 15.79 20.0832 10.5C20.0832 5.21 15.7898 0.916664 10.4998 0.916664ZM11.4582 17.2083H9.5415V15.2917H11.4582V17.2083ZM13.4419 9.78125L12.5794 10.6629C11.8894 11.3625 11.4582 11.9375 11.4582 13.375H9.5415V12.8958C9.5415 11.8417 9.97275 10.8833 10.6628 10.1837L11.8511 8.97625C12.2057 8.63125 12.4165 8.15208 12.4165 7.625C12.4165 6.57083 11.554 5.70833 10.4998 5.70833C9.44567 5.70833 8.58317 6.57083 8.58317 7.625H6.6665C6.6665 5.50708 8.38192 3.79166 10.4998 3.79166C12.6178 3.79166 14.3332 5.50708 14.3332 7.625C14.3332 8.46833 13.9882 9.235 13.4419 9.78125Z" fill="white"/>
</svg>
