<svg width="18" height="19" viewBox="0 0 18 19" fill="none" xmlns="http://www.w3.org/2000/svg">
  <path fill-rule="evenodd" clip-rule="evenodd" d="M8.55476 15.1026C12.0317 15.1026 14.8504 12.2326 14.8504 8.69231C14.8504 5.15202 12.0317 2.28205 8.55476 2.28205C5.07778 2.28205 2.25913 5.15202 2.25913 8.69231C2.25913 12.2326 5.07778 15.1026 8.55476 15.1026ZM8.55476 16.3846C12.7271 16.3846 16.1095 12.9407 16.1095 8.69231C16.1095 4.44396 12.7271 1 8.55476 1C4.38238 1 1 4.44396 1 8.69231C1 12.9407 4.38238 16.3846 8.55476 16.3846Z" fill="#C2C6CC"/>
  <path fill-rule="evenodd" clip-rule="evenodd" d="M16.1097 17.6667L12.6175 14.1109L13.5078 13.2044L17 16.7601L16.1097 17.6667Z" fill="#C2C6CC"/>
  <path fill-rule="evenodd" clip-rule="evenodd" d="M8.55476 15.1026C12.0317 15.1026 14.8504 12.2326 14.8504 8.69231C14.8504 5.15202 12.0317 2.28205 8.55476 2.28205C5.07778 2.28205 2.25913 5.15202 2.25913 8.69231C2.25913 12.2326 5.07778 15.1026 8.55476 15.1026ZM8.55476 16.3846C12.7271 16.3846 16.1095 12.9407 16.1095 8.69231C16.1095 4.44396 12.7271 1 8.55476 1C4.38238 1 1 4.44396 1 8.69231C1 12.9407 4.38238 16.3846 8.55476 16.3846Z" stroke="#C2C6CC" stroke-width="0.5"/>
  <path fill-rule="evenodd" clip-rule="evenodd" d="M16.1097 17.6667L12.6175 14.1109L13.5078 13.2044L17 16.7601L16.1097 17.6667Z" stroke="#C2C6CC" stroke-width="0.5"/>
</svg>
